<svg xmlns="http://www.w3.org/2000/svg" width="40" height="40" viewBox="0 0 40 40"><g><g><path fill="#e5e5e5" d="M0 0h40v40H0z"/></g><g><path fill="#fff" d="M17.482 21.003c-.198-.132-.55-.154-.946-.154h-2.113v2.574h2.069c.44 0 .748-.044.99-.176.44-.198.638-.616.638-1.21 0-.484-.198-.836-.638-1.034zm6.887-1.826c-.484 0-.836.11-1.1.396-.242.286-.396.638-.484 1.078h3.124c-.044-.484-.198-.836-.462-1.122a1.758 1.758 0 0 0-1.078-.352zm-7.481-3.763c1.188 0 2.024.352 2.53 1.034.286.396.44.902.44 1.452 0 .595-.154 1.079-.484 1.43-.154.243-.396.397-.704.55.462.199.858.485 1.1.881.242.396.396.88.396 1.43 0 .55-.154 1.056-.44 1.54-.198.308-.418.55-.704.748-.286.242-.682.397-1.078.528-.418.066-.858.11-1.386.11H12.2v-9.703zm7.48 2.266c.595 0 1.145.11 1.63.309.461.242.857.55 1.187 1.034.264.44.462.902.55 1.452.044.33.088.77.088 1.364h-5.082c0 .704.286 1.188.726 1.452.264.198.616.286.99.286a1.64 1.64 0 0 0 1.012-.33c.176-.11.286-.264.374-.462h1.848c-.044.396-.264.836-.66 1.254-.594.682-1.518.99-2.618.99-.924 0-1.738-.263-2.464-.814-.704-.594-1.035-1.518-1.035-2.816 0-1.188.33-2.112.969-2.772.616-.638 1.452-.947 2.486-.947zm1.893-1.87v.99H22.39v-.99zm-8.339 2.333c0-.463-.176-.749-.528-.903a3.992 3.992 0 0 0-1.144-.154h-1.827v2.135h2.069c.44 0 .748-.088 1.034-.242.264-.154.396-.44.396-.836z"/></g></g></svg>