<svg xmlns="http://www.w3.org/2000/svg" width="190" height="44" viewBox="0 0 190 44"><defs><clipPath id="yx02a"><path fill="#fff" d="M22 2h146c11.046 0 20 8.954 20 20 0 11.045-8.954 20-20 20H22C10.954 42 2 33.045 2 22 2 10.954 10.954 2 22 2z"/></clipPath></defs><g><g><path fill="#fff" d="M22 2h146c11.046 0 20 8.954 20 20 0 11.045-8.954 20-20 20H22C10.954 42 2 33.045 2 22 2 10.954 10.954 2 22 2z"/><path fill="none" stroke="#c2c2c2" stroke-linecap="round" stroke-linejoin="round" stroke-miterlimit="20" stroke-width="4" d="M22 2h146c11.046 0 20 8.954 20 20 0 11.045-8.954 20-20 20H22C10.954 42 2 33.045 2 22 2 10.954 10.954 2 22 2z" clip-path="url(&quot;#yx02a&quot;)"/></g></g></svg>