<svg xmlns="http://www.w3.org/2000/svg" width="214" height="44" viewBox="0 0 214 44"><defs><clipPath id="xrmia"><path fill="#fff" d="M22 2h170c11.046 0 20 8.954 20 20 0 11.045-8.954 20-20 20H22C10.954 42 2 33.045 2 22 2 10.954 10.954 2 22 2z"/></clipPath></defs><g><g><path fill="#fff" d="M22 2h170c11.046 0 20 8.954 20 20 0 11.045-8.954 20-20 20H22C10.954 42 2 33.045 2 22 2 10.954 10.954 2 22 2z"/><path fill="none" stroke="#58c93a" stroke-linecap="round" stroke-linejoin="round" stroke-miterlimit="20" stroke-width="4" d="M22 2h170c11.046 0 20 8.954 20 20 0 11.045-8.954 20-20 20H22C10.954 42 2 33.045 2 22 2 10.954 10.954 2 22 2z" clip-path="url(&quot;#xrmia&quot;)"/></g></g></svg>